<svg xmlns="http://www.w3.org/2000/svg" width="452" height="292" viewBox="-6 -6 452 292" role="img" aria-labelledby="title desc">
  <title id="title">Deep Learning for Markets</title>
  <desc id="desc">MSc thesis · University of Alicante. Neural network architectures for stock price prediction, trained on large-scale historical time series and benchmarked.</desc>
  <defs>
    <clipPath id="frame"><rect width="440" height="280" rx="14"/></clipPath>
    <radialGradient id="glow" cx="0" cy="0" r=".9"><stop offset="0" stop-color="#bb9af7" stop-opacity=".16"/><stop offset="1" stop-color="#bb9af7" stop-opacity="0"/></radialGradient>
  </defs>
  <style>
    .sans { font-family: 'Segoe UI', Inter, -apple-system, BlinkMacSystemFont, 'Helvetica Neue', Arial, sans-serif; }
    .mono { font-family: ui-monospace, SFMono-Regular, 'JetBrains Mono', 'Cascadia Code', Menlo, Consolas, monospace; }
    @keyframes blink { 0%, 49% { opacity: 1; } 50%, 100% { opacity: 0; } }
    @keyframes pulse { 0%, 100% { opacity: .35; } 50% { opacity: 1; } }
    .cursor { animation: blink 1.1s steps(1) infinite; }
    .pulse { animation: pulse 2.4s ease-in-out infinite; }

    .eq { transform-box: fill-box; transform-origin: bottom; animation: eq 1.1s ease-in-out infinite alternate; }
    @keyframes eq { 0% { transform: scaleY(.25); } 100% { transform: scaleY(1); } }
    @media (prefers-reduced-motion: reduce) { * { animation: none !important; } }
  </style>
  <g clip-path="url(#frame)">
    <rect width="440" height="280" fill="#1a1b27"/>
    <rect width="440" height="280" fill="url(#glow)"/>
    <g transform="translate(22,20) scale(1.1)">
      <rect width="40" height="40" rx="10" fill="#bb9af7" fill-opacity=".10" stroke="#bb9af7" stroke-opacity=".35"/>
      <g stroke-width="1.6"><line x1="10" y1="11" x2="10" y2="31" stroke="#9ece6a"/><line x1="17" y1="8" x2="17" y2="25" stroke="#f7768e"/><line x1="24" y1="14" x2="24" y2="32" stroke="#9ece6a"/><line x1="31" y1="6" x2="31" y2="22" stroke="#9ece6a"/></g>
      <rect x="8" y="16" width="4" height="10" rx="1" fill="#9ece6a"/><rect x="15" y="12" width="4" height="8" rx="1" fill="#f7768e"/><rect x="22" y="18" width="4" height="10" rx="1" fill="#9ece6a"/><rect x="29" y="9" width="4" height="8" rx="1" fill="#9ece6a"/>
      <polyline points="6,30 13,24 20,26 27,17 35,9" fill="none" stroke="#bb9af7" stroke-width="1.6" stroke-dasharray="2 2.5"/>
    </g>
    <rect x="288.9" y="28" width="129.1" height="28" rx="14" fill="#e0af68" fill-opacity=".10" stroke="#e0af68" stroke-opacity=".45"/>
    <path transform="translate(304.9,42) scale(.7) translate(-8,-8.4)" d="M8 0l2.4 5 5.6.8-4 3.9 1 5.5L8 12.6 3 15.2l1-5.5-4-3.9L5.6 5Z" fill="#e0af68"/>
    <text x="317.9" y="46.5" class="mono" font-size="12.5" letter-spacing=".6" fill="#e0af68">GRADE 10/10</text>
    <text x="24" y="110" class="sans" font-size="27" font-weight="700" fill="#c0caf5">Deep Learning for Markets</text>
    <text x="24" y="136" class="mono" font-size="14" fill="#737aa2">MSc thesis · University of Alicante</text>
    <text x="24" y="172" class="sans" font-size="16.5" fill="#a9b1d6">Neural network architectures for stock</text><text x="24" y="197" class="sans" font-size="16.5" fill="#a9b1d6">price prediction, trained on large-scale</text><text x="24" y="222" class="sans" font-size="16.5" fill="#a9b1d6">historical time series and benchmarked.</text>
    <rect x="24.0" y="238" width="78.8" height="28" rx="14" fill="#c0caf5" fill-opacity=".04" stroke="#292e42"/><circle cx="38.0" cy="252" r="4.5" fill="#4B8BBE"/><text x="48.0" y="256.5" class="mono" font-size="13" fill="#a9b1d6">Python</text><rect x="110.8" y="238" width="86.6" height="28" rx="14" fill="#c0caf5" fill-opacity=".04" stroke="#292e42"/><circle cx="124.8" cy="252" r="4.5" fill="#EE4C2C"/><text x="134.8" y="256.5" class="mono" font-size="13" fill="#a9b1d6">PyTorch</text><rect x="205.4" y="238" width="78.8" height="28" rx="14" fill="#c0caf5" fill-opacity=".04" stroke="#292e42"/><circle cx="219.4" cy="252" r="4.5" fill="#FFCA00"/><text x="229.4" y="256.5" class="mono" font-size="13" fill="#a9b1d6">pandas</text><rect x="292.2" y="238" width="117.8" height="28" rx="14" fill="#c0caf5" fill-opacity=".04" stroke="#292e42"/><circle cx="306.2" cy="252" r="4.5" fill="#bb9af7"/><text x="316.2" y="256.5" class="mono" font-size="13" fill="#a9b1d6">Time series</text>
  </g>
  <rect x=".5" y=".5" width="439" height="279" rx="13.5" fill="none" stroke="#292e42"/>
</svg>
